<svg xmlns="http://www.w3.org/2000/svg" viewBox="0 0 512 512">
  <defs>
    <linearGradient id="bgGrad" x1="0%" y1="0%" x2="100%" y2="100%">
      <stop offset="0%" style="stop-color:#1a73e8"/>
      <stop offset="100%" style="stop-color:#0d47a1"/>
    </linearGradient>
    <linearGradient id="pigGrad" x1="0%" y1="0%" x2="100%" y2="100%">
      <stop offset="0%" style="stop-color:#ffffff"/>
      <stop offset="100%" style="stop-color:#e3f2fd"/>
    </linearGradient>
    <linearGradient id="coinGrad" x1="0%" y1="0%" x2="100%" y2="100%">
      <stop offset="0%" style="stop-color:#ffd54f"/>
      <stop offset="100%" style="stop-color:#ffb300"/>
    </linearGradient>
  </defs>

  <!-- Background rounded square -->
  <rect width="512" height="512" rx="100" ry="100" fill="url(#bgGrad)"/>

  <!-- Piggy bank body -->
  <ellipse cx="256" cy="280" rx="140" ry="110" fill="url(#pigGrad)" opacity="0.95"/>

  <!-- Piggy head -->
  <ellipse cx="160" cy="250" rx="60" ry="50" fill="url(#pigGrad)" opacity="0.95"/>

  <!-- Snout -->
  <ellipse cx="118" cy="260" rx="28" ry="20" fill="#e3f2fd" stroke="#bbdefb" stroke-width="2"/>
  <!-- Nostrils -->
  <ellipse cx="112" cy="258" rx="4" ry="5" fill="#90caf9"/>
  <ellipse cx="124" cy="258" rx="4" ry="5" fill="#90caf9"/>

  <!-- Eye -->
  <circle cx="148" cy="235" r="8" fill="#0d47a1"/>
  <circle cx="150" cy="233" r="3" fill="#ffffff"/>

  <!-- Ear -->
  <ellipse cx="175" cy="210" rx="22" ry="28" fill="url(#pigGrad)" stroke="#bbdefb" stroke-width="2" transform="rotate(-15 175 210)"/>
  <ellipse cx="175" cy="213" rx="12" ry="17" fill="#bbdefb" transform="rotate(-15 175 213)"/>

  <!-- Legs -->
  <rect x="190" y="360" width="30" height="45" rx="10" fill="url(#pigGrad)" stroke="#bbdefb" stroke-width="2"/>
  <rect x="240" y="365" width="30" height="40" rx="10" fill="url(#pigGrad)" stroke="#bbdefb" stroke-width="2"/>
  <rect x="295" y="365" width="30" height="40" rx="10" fill="url(#pigGrad)" stroke="#bbdefb" stroke-width="2"/>
  <rect x="345" y="360" width="30" height="45" rx="10" fill="url(#pigGrad)" stroke="#bbdefb" stroke-width="2"/>

  <!-- Tail (curly) -->
  <path d="M396 270 Q420 250 410 230 Q400 210 420 200" fill="none" stroke="#e3f2fd" stroke-width="8" stroke-linecap="round"/>

  <!-- Coin slot on top -->
  <rect x="230" y="168" width="60" height="8" rx="4" fill="#0d47a1" opacity="0.6"/>

  <!-- Coin going in -->
  <g transform="translate(260 148) rotate(-10)">
    <ellipse cx="0" cy="0" rx="22" ry="26" fill="url(#coinGrad)" stroke="#f9a825" stroke-width="2"/>
    <text x="0" y="6" text-anchor="middle" font-family="Arial, sans-serif" font-weight="bold" font-size="22" fill="#f57f17">₪</text>
  </g>
</svg>
